<svg width="425" height="1740" viewBox="0 0 425 1740" fill="none" xmlns="http://www.w3.org/2000/svg">
<path fill-rule="evenodd" clip-rule="evenodd" d="M43.8878 51.8165C44.0063 51.934 44.1665 52 44.3334 52C44.5003 52 44.6604 51.934 44.779 51.8165L95.3538 1.65402C97.5773 -0.55132 101.163 -0.551295 103.386 1.65407L153.959 51.8151C154.078 51.9335 154.239 52 154.408 52C154.576 52 154.737 51.9335 154.857 51.8151L205.43 1.65402C207.653 -0.551321 211.239 -0.551295 213.463 1.65407L264.036 51.8158C264.155 51.9338 264.315 52 264.483 52C264.65 52 264.811 51.9338 264.93 51.8158L315.504 1.65402C317.728 -0.55132 321.313 -0.551295 323.537 1.65407L374.11 51.8158C374.229 51.9338 374.389 52 374.557 52C374.725 52 374.885 51.9338 375.004 51.8158L425.578 1.65402C427.802 -0.55132 431.388 -0.551295 433.611 1.65407L474.799 42.5068C478.414 46.0929 475.875 52.2594 470.782 52.2594H430.704C427.554 52.2594 425 54.8129 425 57.9627V170V177.297V1739H424.999L424.999 1652L337.832 1739H0.000377655V177.297V170V57.9627C0.000377655 54.8129 -2.55309 52.2594 -5.70295 52.2594H-51.8907C-56.9831 52.2594 -59.5226 46.0928 -55.907 42.5067L-14.7185 1.65402C-12.495 -0.551321 -8.90922 -0.551295 -6.68578 1.65407L43.8878 51.8165Z" fill="#CAFA44"/>
<path d="M337.451 1739.38L337.451 1652L425 1652L337.451 1739.38Z" fill="url(#paint0_linear_210_4040)"/>
<g opacity="0.2">
<path d="M0 276.5L100.5 176L-8.78599e-06 176L0 276.5Z" fill="white"/>
<path d="M100.5 276.5L201 176L100.5 176L100.5 276.5Z" fill="white"/>
<path d="M0 377L100.5 276.5L-8.78599e-06 276.5L0 377Z" fill="white"/>
</g>
<path opacity="0.2" d="M337 1652L250 1739L250 1652L337 1652Z" fill="white"/>
<path opacity="0.2" d="M323 518L425 620L425 518L323 518Z" fill="white"/>
<path opacity="0.2" d="M0 1675L32 1708.45L64 1675V1739H0V1675Z" fill="white"/>
<path opacity="0.2" d="M64 1675L96 1708.45L128 1675V1739H64V1675Z" fill="white"/>
<path opacity="0.2" d="M128 1675L160 1708.45L192 1675V1739H128V1675Z" fill="white"/>
<defs>
<linearGradient id="paint0_linear_210_4040" x1="391.383" y1="1704.43" x2="337.45" y2="1652" gradientUnits="userSpaceOnUse">
<stop stop-color="#5D7321"/>
<stop offset="1" stop-color="#B7EA28"/>
</linearGradient>
</defs>
</svg>
