<svg width="1920" height="966" viewBox="0 0 1920 966" fill="none" xmlns="http://www.w3.org/2000/svg">
<path fill-rule="evenodd" clip-rule="evenodd" d="M562.822 2.88928C565.551 0.182551 569.952 0.182581 572.681 2.88935L635.301 65L501.2 65H904.356L770.401 65L833.022 2.88931C835.751 0.182563 840.152 0.182583 842.881 2.88935L899.999 59.5433C902.728 62.25 907.129 62.2501 909.858 59.5433L966.978 2.88929C969.707 0.182554 974.108 0.182577 976.837 2.88934L1193.74 218.03C1198.18 222.432 1195.06 230 1188.81 230H752.2C746.979 230 744.375 223.677 748.082 220V220C751.789 216.323 749.185 210 743.964 210H-2.7266e-05C-3.86602 210 -7.00003 206.866 -7.00003 203V71.4149C-7.00003 67.8721 -9.87209 65 -13.415 65V65C-19.1427 65 -21.9991 58.064 -17.9324 54.0305L33.6292 2.88931C36.3582 0.182577 40.7592 0.182606 43.4881 2.88937L98.6265 57.5795C101.355 60.2862 105.757 60.2863 108.485 57.5795L163.625 2.88931C166.354 0.182577 170.755 0.182605 173.484 2.88937L228.623 57.5795C231.352 60.2862 235.753 60.2863 238.482 57.5795L293.621 2.88931C296.35 0.182577 300.751 0.182607 303.48 2.88937L361.171 60.1106C363.9 62.8174 368.301 62.8174 371.03 60.1107L428.721 2.88934C431.45 0.18259 435.851 0.182608 438.58 2.88938L495.771 59.6154C498.5 62.3221 502.901 62.3221 505.63 59.6154L562.822 2.88928ZM770.401 65H635.301L697.922 2.88931C700.651 0.182561 705.052 0.182585 707.781 2.88936L770.401 65Z" fill="#CAFA44"/>
<path fill-rule="evenodd" clip-rule="evenodd" d="M-5 200H1925V770H1681L1681 950L1681 770.098L1500.75 950H-5V200Z" fill="#CAFA44"/>
<path fill-rule="evenodd" clip-rule="evenodd" d="M403.5 201L241 363.5L241 201L403.5 201ZM403.5 363.5L403.5 201H566L403.5 363.5ZM403.5 363.5H241V526L403.5 363.5ZM1680.5 363.5L1518 201L1680.5 201V363.5ZM1500 770L1321 949V770H1500ZM448 888.909L384 822V950H512H640H768V822L704 888.909L640 822L576 888.909L512 822L448 888.909Z" fill="white" fill-opacity="0.2"/>
<path d="M1500 950.75L1500 770.098L1681 770.098L1500 950.75Z" fill="url(#paint0_linear_391_4406)"/>
<defs>
<linearGradient id="paint0_linear_391_4406" x1="1611.5" y1="878.5" x2="1500" y2="770.098" gradientUnits="userSpaceOnUse">
<stop stop-color="#5D7321"/>
<stop offset="1" stop-color="#B7EA28"/>
</linearGradient>
</defs>
</svg>
